<?xml version="1.0" standalone="no"?>
<!DOCTYPE svg PUBLIC "-//W3C//DTD SVG 20010904//EN"
 "http://www.w3.org/TR/2001/REC-SVG-20010904/DTD/svg10.dtd">
<svg version="1.0" xmlns="http://www.w3.org/2000/svg"
 width="4096.000000pt" height="2528.000000pt" viewBox="0 0 4096.000000 2528.000000"
 preserveAspectRatio="xMidYMid meet">

<g transform="translate(0.000000,2528.000000) scale(0.100000,-0.100000)"
fill="#000000" stroke="none">
<path d="M19934 16058 c-296 -513 -915 -1583 -1375 -2378 l-837 -1445 1379 -3
c758 -1 2000 -1 2758 0 l1380 3 -177 305 c-98 168 -717 1238 -1377 2378 -660
1139 -1202 2072 -1205 2072 -4 0 -249 -419 -546 -932z m464 -794 l-3 -1236
-1120 -714 c-616 -394 -1129 -720 -1139 -726 -24 -13 -160 -252 1149 2011 605
1045 1103 1901 1108 1901 4 0 6 -556 5 -1236z m239 1128 c47 -82 971 -1679
2182 -3772 l26 -45 -25 16 c-14 8 -528 336 -1142 728 l-1118 713 0 1234 c0
679 3 1234 8 1234 4 0 35 -49 69 -108z m-237 -2815 c0 -220 -2 -245 -17 -259
-10 -8 -336 -218 -725 -467 l-707 -451 -393 2 -393 3 95 60 c52 33 552 351
1110 707 558 357 1018 648 1022 648 4 0 8 -110 8 -243z m1284 -464 c600 -383
1095 -700 1100 -704 6 -5 -161 -9 -380 -9 l-389 0 -713 454 c-393 250 -720
460 -728 467 -11 9 -14 57 -14 256 0 226 1 245 17 239 9 -4 508 -320 1107
-703z m-601 -320 c326 -207 596 -380 602 -385 5 -4 -538 -8 -1205 -8 l-1215 1
55 34 c30 19 300 191 600 384 300 192 551 350 558 350 7 1 279 -168 605 -376z"/>
<path d="M12092 11669 c-168 -22 -373 -103 -475 -188 -105 -87 -180 -209 -206
-329 -16 -74 -14 -207 4 -275 22 -85 56 -145 119 -209 120 -122 220 -169 646
-303 237 -75 310 -128 310 -227 0 -92 -84 -152 -236 -167 -205 -21 -468 24
-659 112 -143 66 -224 56 -290 -36 -25 -35 -30 -53 -34 -114 -4 -89 19 -144
84 -201 126 -111 491 -190 820 -179 336 11 541 81 695 236 77 78 121 161 144
273 40 195 -1 362 -117 482 -106 108 -230 168 -588 281 -224 71 -309 111 -343
161 -46 67 -32 152 33 207 118 98 451 92 696 -15 148 -64 169 -70 216 -66 26
3 63 15 83 27 115 72 123 264 15 355 -94 79 -290 148 -502 176 -90 12 -322 11
-415 -1z"/>
<path d="M22245 11664 c-351 -63 -614 -243 -762 -520 -91 -172 -133 -353 -133
-579 0 -324 80 -544 265 -731 104 -104 175 -154 289 -200 170 -69 301 -89 536
-81 234 8 474 53 580 107 81 42 132 117 155 229 24 113 67 695 56 739 -13 46
-65 99 -112 112 -46 13 -593 13 -642 -1 -47 -13 -106 -63 -123 -106 -29 -69
-12 -166 37 -209 39 -35 85 -44 220 -44 71 0 129 -2 129 -4 0 -46 -33 -373
-38 -377 -11 -10 -119 -28 -207 -35 -102 -8 -215 8 -307 43 -136 52 -239 184
-274 353 -25 120 -20 323 10 441 62 243 203 393 416 438 68 15 252 15 332 1
68 -13 192 -56 267 -95 98 -49 178 -43 248 18 130 114 80 310 -101 396 -86 42
-248 88 -370 106 -128 19 -363 18 -471 -1z"/>
<path d="M26465 11669 c-129 -19 -292 -82 -401 -156 -175 -119 -305 -293 -378
-504 -76 -222 -92 -524 -41 -746 88 -380 393 -648 802 -703 134 -18 375 -9
483 19 103 27 250 95 334 155 84 60 212 198 262 282 189 319 224 786 84 1115
-121 285 -382 480 -715 534 -98 16 -331 18 -430 4z m395 -438 c58 -22 131 -75
174 -128 42 -50 85 -154 102 -244 22 -115 14 -362 -15 -469 -31 -113 -92 -229
-155 -293 -214 -217 -607 -161 -743 106 -77 152 -92 411 -36 637 46 191 167
343 315 396 98 35 257 33 358 -5z"/>
<path d="M28699 11670 c-376 -60 -616 -240 -680 -510 -18 -75 -15 -225 6 -296
24 -83 47 -123 105 -187 105 -114 221 -172 576 -286 233 -74 311 -109 352
-155 84 -96 31 -212 -113 -251 -79 -22 -290 -22 -413 0 -122 21 -251 59 -337
99 -86 41 -133 50 -184 36 -86 -23 -135 -95 -136 -200 0 -54 5 -74 31 -120 38
-68 92 -107 211 -150 316 -115 758 -133 1047 -43 279 86 437 261 465 514 20
177 -21 311 -130 424 -107 111 -198 156 -553 270 -114 36 -237 80 -272 97
-117 56 -157 134 -114 223 69 142 384 171 690 63 46 -17 107 -42 135 -56 39
-21 64 -27 117 -27 59 0 70 3 105 31 75 59 106 180 69 268 -41 98 -205 185
-448 237 -106 23 -432 34 -529 19z"/>
<path d="M13625 11661 c-85 -22 -166 -101 -190 -185 -23 -82 -98 -1059 -91
-1186 26 -469 301 -717 816 -737 464 -18 751 121 911 439 40 80 80 203 98 304
14 75 91 1036 91 1130 0 148 -71 227 -213 241 -99 9 -169 -16 -234 -82 -39
-40 -56 -67 -67 -107 -9 -31 -34 -286 -60 -613 -45 -561 -55 -635 -98 -724
-63 -132 -213 -197 -394 -171 -219 30 -314 152 -314 405 0 55 16 307 35 560
19 253 35 483 35 511 0 74 -41 151 -101 187 -37 23 -61 29 -120 32 -41 2 -87
1 -104 -4z"/>
<path d="M15775 11627 c-117 -56 -131 -95 -160 -456 -77 -949 -108 -1390 -101
-1434 9 -58 56 -122 109 -150 48 -25 160 -34 222 -18 96 24 171 102 194 199 8
35 51 500 51 554 0 4 136 8 303 8 207 1 326 5 377 14 231 41 398 155 484 331
49 99 67 172 73 310 14 328 -126 535 -432 636 -69 23 -77 24 -570 26 l-500 3
-50 -23z m850 -388 c117 -21 175 -72 196 -169 30 -142 -29 -264 -150 -312 -50
-19 -80 -22 -294 -26 -131 -2 -242 0 -247 4 -7 8 25 472 35 502 6 16 374 17
460 1z"/>
<path d="M17790 11637 c-56 -18 -126 -95 -144 -158 -15 -56 -136 -1554 -136
-1684 1 -91 24 -144 81 -182 l43 -28 620 0 621 0 48 24 c30 15 58 38 75 64 23
35 27 51 27 117 0 67 -3 82 -27 116 -57 81 -39 79 -520 82 l-428 3 0 29 c0 43
30 383 35 397 3 9 101 13 402 15 395 3 398 3 446 26 80 40 123 146 97 242 -15
56 -72 114 -125 129 -26 7 -172 11 -412 11 l-373 0 0 40 c0 46 18 280 26 327
l5 32 427 3 c426 3 427 3 475 27 67 33 100 85 105 167 2 35 2 75 -2 88 -9 37
-56 87 -101 107 -37 17 -78 19 -635 18 -406 -1 -606 -5 -630 -12z"/>
<path d="M19552 11637 c-81 -30 -143 -116 -157 -217 -10 -76 -125 -1571 -125
-1625 0 -77 17 -123 64 -169 29 -29 57 -46 88 -54 95 -24 202 -9 268 38 38 27
87 100 100 150 5 19 19 158 30 309 11 150 23 278 27 284 9 15 231 2 273 -16
19 -8 45 -25 57 -39 13 -13 78 -143 146 -289 165 -352 169 -360 216 -402 157
-142 441 -25 441 182 0 58 -18 106 -125 323 -76 156 -124 217 -202 257 l-55
27 68 19 c108 29 219 90 285 156 107 107 160 260 161 464 0 301 -137 490 -427
586 -69 23 -76 24 -585 26 -383 1 -523 -1 -548 -10z m944 -422 c83 -43 108
-90 109 -200 0 -119 -38 -180 -140 -227 -47 -21 -65 -23 -314 -26 -144 -2
-266 0 -270 5 -5 4 0 109 10 233 10 124 18 231 18 238 1 12 49 13 264 10 l263
-3 60 -30z"/>
<path d="M23820 11637 c-57 -19 -126 -93 -144 -157 -15 -53 -137 -1535 -138
-1680 -1 -81 24 -142 75 -187 47 -41 104 -56 193 -51 125 8 217 79 249 193 8
28 21 151 29 275 9 124 19 249 22 279 l6 54 123 -5 c144 -7 183 -21 224 -82
15 -22 88 -171 161 -330 142 -304 167 -343 248 -382 81 -39 207 -17 296 51 72
55 103 164 72 251 -31 88 -186 392 -220 431 -20 23 -62 55 -94 71 l-58 28 65
17 c176 47 312 150 381 291 50 102 70 192 70 327 0 298 -137 492 -415 587
l-80 27 -515 2 c-361 1 -525 -2 -550 -10z m913 -406 c51 -16 113 -74 128 -119
7 -20 12 -67 12 -104 0 -129 -73 -214 -206 -237 -35 -6 -168 -11 -296 -11
l-233 0 6 53 c3 28 10 129 16 222 6 94 13 181 16 193 l5 24 257 -5 c163 -2
271 -8 295 -16z"/>
<path d="M19727 8982 c-35 -38 -9 -102 40 -102 47 0 71 71 35 103 -24 22 -55
21 -75 -1z"/>
<path d="M16169 8948 c10 -24 52 -120 93 -214 l75 -170 -13 -105 c-7 -57 -15
-119 -18 -136 -5 -33 -5 -33 39 -33 50 0 48 -7 66 158 l13 114 143 211 c140
206 143 212 117 215 -55 7 -67 -5 -181 -179 -87 -133 -114 -167 -119 -153 -22
63 -118 293 -130 312 -11 17 -24 22 -59 22 l-44 0 18 -42z"/>
<path d="M18250 8986 c0 -3 -18 -151 -40 -327 -22 -177 -40 -332 -40 -346 l0
-25 163 4 c144 3 167 6 204 26 50 26 87 72 102 127 24 87 2 144 -68 180 l-46
23 27 11 c48 18 95 76 107 129 17 81 -8 141 -72 174 -36 18 -64 22 -189 26
-82 3 -148 2 -148 -2z m263 -79 c45 -19 60 -42 60 -90 0 -100 -62 -146 -195
-147 -43 0 -78 3 -78 8 0 4 7 54 15 112 8 58 15 111 15 118 0 17 141 16 183
-1z m18 -335 c49 -55 32 -152 -33 -192 -27 -17 -50 -20 -136 -20 l-104 0 6 28
c3 15 10 71 17 126 l12 98 104 -4 c104 -4 106 -4 134 -36z"/>
<path d="M21910 8989 c-1 -2 -20 -159 -43 -349 l-43 -345 39 -3 c22 -2 41 -1
44 2 3 3 12 62 21 131 l15 125 77 0 c190 0 293 86 294 245 1 91 -20 131 -89
165 -44 22 -66 25 -182 28 -73 3 -133 3 -133 1z m243 -83 c48 -20 69 -50 74
-103 3 -36 -1 -59 -19 -93 -32 -63 -88 -90 -186 -90 l-74 0 6 28 c3 15 10 70
16 122 19 163 12 150 86 150 36 0 79 -6 97 -14z"/>
<path d="M23317 8933 c-3 -5 -13 -42 -22 -84 l-18 -77 -39 -6 c-32 -5 -38 -10
-38 -31 0 -22 4 -25 33 -25 l33 0 -17 -137 c-26 -196 -25 -238 6 -268 31 -32
104 -34 153 -5 36 22 36 23 22 51 -9 15 -15 17 -30 9 -27 -15 -66 -12 -80 5
-10 12 -9 45 5 162 9 82 19 156 21 166 4 14 17 17 69 17 62 0 63 0 67 30 l5
30 -64 0 -63 0 1 33 c0 17 4 56 8 85 7 52 7 52 -20 52 -15 0 -30 -3 -32 -7z"/>
<path d="M16793 8781 c-103 -26 -182 -137 -191 -267 -5 -84 8 -132 50 -180 73
-83 225 -66 307 33 68 83 92 230 52 319 -36 79 -126 118 -218 95z m120 -87
c16 -16 28 -42 33 -70 25 -166 -87 -317 -199 -270 -72 30 -86 160 -31 274 31
63 72 92 130 92 31 0 48 -6 67 -26z"/>
<path d="M17866 8779 c-36 -10 -62 -33 -98 -89 l-30 -45 2 55 c3 82 4 82 -32
78 l-33 -3 -27 -215 c-36 -291 -37 -270 12 -270 22 0 40 4 40 8 0 4 7 61 15
126 23 185 75 276 160 276 36 0 44 4 49 23 15 55 -2 71 -58 56z"/>
<path d="M19370 8768 c-59 -31 -82 -66 -88 -130 -4 -47 -1 -56 22 -79 14 -14
52 -36 83 -48 74 -28 93 -46 93 -87 0 -74 -100 -108 -182 -62 -39 22 -40 22
-54 3 -18 -24 -15 -34 19 -59 41 -30 142 -34 194 -7 77 39 117 122 91 190 -11
31 -25 42 -103 81 -76 38 -90 49 -93 71 -8 69 88 110 165 70 40 -20 41 -20 58
-1 22 24 13 37 -39 61 -55 25 -112 24 -166 -3z"/>
<path d="M20112 8764 c-32 -16 -65 -43 -83 -67 l-29 -40 0 61 0 62 -33 0 -33
0 -27 -237 c-15 -131 -28 -241 -27 -245 0 -5 18 -8 39 -8 45 0 39 -16 62 175
12 107 44 173 108 223 77 58 131 36 131 -54 0 -27 -7 -104 -15 -169 -22 -178
-23 -175 24 -175 45 0 38 -22 67 225 12 108 13 150 5 181 -23 88 -98 114 -189
68z"/>
<path d="M20555 8767 c-101 -49 -155 -138 -163 -269 -4 -64 -1 -84 17 -122 28
-56 73 -86 144 -93 71 -7 143 17 187 62 28 29 31 37 20 50 -17 21 -27 19 -62
-10 -43 -37 -95 -49 -146 -36 -52 15 -76 48 -76 109 l-1 46 83 13 c145 23 214
64 228 138 19 101 -117 167 -231 112z m133 -53 c27 -18 29 -65 5 -90 -10 -9
-31 -22 -48 -29 -43 -17 -154 -39 -162 -31 -8 8 35 101 56 120 49 45 111 57
149 30z"/>
<path d="M20989 8780 c-67 -20 -119 -89 -119 -159 0 -45 47 -89 129 -120 44
-16 65 -30 71 -47 12 -31 -5 -78 -35 -98 -35 -23 -107 -21 -138 4 -33 26 -53
25 -68 -2 -10 -19 -8 -25 17 -45 35 -28 79 -37 145 -31 120 12 202 155 134
236 -14 17 -49 38 -86 51 -61 23 -99 51 -99 74 0 6 9 26 19 44 27 44 93 55
150 24 37 -18 42 -19 56 -4 23 22 15 35 -35 61 -45 22 -94 27 -141 12z"/>
<path d="M21366 8780 c-42 -13 -95 -68 -107 -113 -21 -80 7 -120 113 -159 34
-12 66 -31 75 -44 20 -31 9 -78 -24 -104 -35 -27 -111 -27 -146 0 -31 25 -39
25 -61 1 -22 -24 -16 -36 36 -62 57 -29 150 -24 201 11 75 51 100 151 52 208
-13 16 -50 39 -82 51 -71 27 -93 46 -93 80 1 33 19 57 54 71 40 15 67 12 111
-10 l40 -21 18 23 c18 21 18 23 0 36 -51 39 -122 51 -187 32z"/>
<path d="M22552 8771 c-66 -23 -117 -63 -160 -125 -84 -124 -80 -306 8 -351
66 -34 148 -5 208 75 l34 45 -3 -60 -4 -60 35 -3 36 -3 27 228 c15 125 28 233
27 239 0 14 -68 34 -116 34 -22 -1 -63 -9 -92 -19z m120 -46 c12 -13 -21 -195
-46 -247 -35 -74 -96 -130 -138 -126 -113 11 -84 263 38 339 51 31 130 50 146
34z"/>
<path d="M23086 8779 c-36 -10 -62 -33 -98 -89 l-29 -45 3 65 3 65 -32 3 c-29
3 -32 0 -38 -30 -5 -31 -55 -439 -55 -452 0 -3 18 -6 40 -6 45 0 42 -8 61 155
11 98 43 182 86 228 21 21 36 27 69 27 44 0 54 10 54 55 0 26 -22 35 -64 24z"/>
<path d="M23775 8775 c-24 -8 -59 -34 -86 -64 l-46 -49 1 56 c1 57 1 57 -31
60 -36 4 -32 22 -63 -248 -11 -96 -23 -190 -26 -207 l-5 -33 44 0 43 0 13 123
c14 142 39 205 101 261 46 41 82 53 115 38 36 -17 39 -58 16 -244 -12 -92 -21
-170 -21 -173 0 -3 19 -5 42 -3 l43 3 17 140 c29 248 22 307 -42 340 -35 18
-63 18 -115 0z"/>
<path d="M24217 8776 c-89 -32 -145 -103 -174 -221 -14 -57 -15 -77 -5 -124
15 -70 36 -100 92 -128 82 -42 203 -19 268 50 20 21 20 25 8 43 -14 18 -16 18
-43 2 -107 -67 -171 -72 -216 -18 -23 27 -43 102 -32 119 2 5 35 12 71 16 122
13 210 52 233 103 32 68 -8 145 -84 162 -53 12 -73 12 -118 -4z m117 -67 c69
-54 -7 -120 -168 -144 l-45 -7 11 36 c22 70 95 135 154 136 12 0 33 -9 48 -21z"/>
<path d="M24722 8770 c-30 -14 -51 -34 -74 -70 -17 -27 -32 -50 -32 -50 -1 0
0 29 2 65 l4 65 -36 0 c-20 0 -36 -4 -36 -8 0 -10 -47 -399 -54 -449 -5 -33
-4 -33 38 -33 l42 0 13 117 c15 136 39 209 85 258 29 30 40 35 78 35 45 0 45
1 51 37 4 20 5 38 4 39 -15 12 -50 10 -85 -6z"/>
<path d="M17147 8743 c-3 -21 -13 -106 -23 -190 -16 -145 -16 -155 0 -198 39
-101 158 -101 253 2 l43 45 -3 -53 -2 -54 35 0 35 0 27 220 c35 288 36 265
-11 265 -45 0 -42 8 -61 -165 -7 -56 -20 -115 -30 -136 -55 -106 -149 -160
-193 -111 -21 23 -22 88 -2 247 21 171 22 165 -24 165 -37 0 -39 -2 -44 -37z"/>
<path d="M18786 8753 c-16 -81 -38 -343 -32 -375 11 -57 43 -89 97 -95 58 -7
109 16 164 73 l40 42 -3 -54 -4 -54 36 0 c32 0 36 3 41 33 5 29 55 440 55 452
0 3 -18 5 -39 5 -47 0 -45 4 -61 -145 -14 -123 -34 -178 -90 -236 -38 -40 -75
-55 -115 -45 -45 11 -48 42 -25 232 11 95 20 177 20 183 0 6 -17 11 -39 11
-35 0 -40 -3 -45 -27z"/>
<path d="M19706 8758 c-5 -21 -56 -446 -56 -462 0 -3 18 -6 40 -6 46 0 39 -22
70 240 11 96 23 192 26 213 l6 37 -41 0 c-34 0 -41 -4 -45 -22z"/>
</g>
</svg>
